<svg xmlns="http://www.w3.org/2000/svg" xmlns:xlink="http://www.w3.org/1999/xlink" id="Layer_1" data-name="Layer 1" viewBox="0 0 477.88 455.79"><defs><style>.cls-1{fill:url(#linear-gradient);}.cls-2{fill:url(#linear-gradient-2);}.cls-3{fill:url(#linear-gradient-3);}</style><linearGradient id="linear-gradient" x1="69.87" y1="93.76" x2="139.99" y2="93.76" gradientUnits="userSpaceOnUse"><stop offset="0" stop-color="#00a4d1"/><stop offset="0.07" stop-color="#05a6cf"/><stop offset="1" stop-color="#47b9b5"/></linearGradient><linearGradient id="linear-gradient-2" x1="21.56" y1="227.9" x2="456.32" y2="227.9" gradientUnits="userSpaceOnUse"><stop offset="0" stop-color="#00a4d1"/><stop offset="0.04" stop-color="#05a6cf"/><stop offset="0.51" stop-color="#47b9b5"/><stop offset="0.64" stop-color="#41b3a5"/><stop offset="0.86" stop-color="#3aaa91"/><stop offset="1" stop-color="#37a789"/></linearGradient><linearGradient id="linear-gradient-3" x1="341.62" y1="371.6" x2="418.9" y2="371.6" gradientUnits="userSpaceOnUse"><stop offset="0" stop-color="#47b9b5"/><stop offset="0.27" stop-color="#41b3a5"/><stop offset="0.71" stop-color="#3aaa91"/><stop offset="1" stop-color="#37a789"/></linearGradient></defs><path class="cls-1" d="M104.93,58.7A35.06,35.06,0,1,0,140,93.76,35.1,35.1,0,0,0,104.93,58.7Zm0,61.23A26.17,26.17,0,1,1,131.1,93.76,26.2,26.2,0,0,1,104.93,119.93Z"/><path class="cls-2" d="M380.26,293a76.15,76.15,0,0,0-75.7,69.14,1.67,1.67,0,0,1-1.66,1.53H246a1.68,1.68,0,0,1-1.68-1.68V355a19.55,19.55,0,0,0-19.52-19.53H111.75A19.55,19.55,0,0,0,92.22,355V362a1.68,1.68,0,0,1-1.67,1.68H69.35a37,37,0,0,1-37-37V270.17a37,37,0,0,1,37-37h91.86a1.67,1.67,0,0,1,1.68,1.67v7.07a19.54,19.54,0,0,0,19.52,19.52H295.47A19.54,19.54,0,0,0,315,241.91v-7.07a1.67,1.67,0,0,1,1.68-1.67h91.86a47.85,47.85,0,0,0,47.79-47.79V135.91a47.85,47.85,0,0,0-47.79-47.79h-21.2a1.67,1.67,0,0,1-1.67-1.67V79.38a19.55,19.55,0,0,0-19.53-19.52H253.07a19.55,19.55,0,0,0-19.52,19.52v7.07a1.68,1.68,0,0,1-1.68,1.67H189.72a1.67,1.67,0,0,1-1.67-1.67V75.52l-17.32-4.73a1.67,1.67,0,0,1-1.12-1c-.58-1.55-1.25-3.14-2-4.73a1.69,1.69,0,0,1,.07-1.53l8.91-15.61-25.8-25.8L135.2,31a1.61,1.61,0,0,1-.83.22,1.68,1.68,0,0,1-.69-.15c-1.65-.76-3.2-1.4-4.73-2a1.66,1.66,0,0,1-1-1.13l-4.74-17.32H86.68L82,28a1.69,1.69,0,0,1-1,1.13c-1.6.59-3.19,1.26-4.72,2a1.69,1.69,0,0,1-.7.15,1.64,1.64,0,0,1-.83-.22l-15.61-8.9L33.25,47.89,42.16,63.5A1.69,1.69,0,0,1,42.23,65c-.73,1.59-1.4,3.18-2,4.73a1.69,1.69,0,0,1-1.13,1L21.81,75.52V112l17.32,4.73a1.72,1.72,0,0,1,1.12,1c.58,1.55,1.25,3.14,2,4.73a1.69,1.69,0,0,1-.07,1.53l-8.91,15.61,25.8,25.8,15.61-8.91a1.75,1.75,0,0,1,.83-.22,1.56,1.56,0,0,1,.7.16c1.61.74,3.2,1.4,4.72,2a1.66,1.66,0,0,1,1,1.13l4.74,17.31h36.5l4.73-17.31a1.69,1.69,0,0,1,1-1.13c1.54-.58,3.13-1.24,4.73-2a1.56,1.56,0,0,1,.7-.16,1.78,1.78,0,0,1,.83.22l15.6,8.9,25.81-25.8L167.69,124a1.66,1.66,0,0,1-.06-1.53c.73-1.58,1.39-3.17,2-4.72a1.66,1.66,0,0,1,1.13-1L188,112V100.58a1.68,1.68,0,0,1,1.68-1.67h42.15a1.68,1.68,0,0,1,1.68,1.67v7.07a19.55,19.55,0,0,0,19.52,19.52H366.13a19.55,19.55,0,0,0,19.53-19.52v-7.07a1.67,1.67,0,0,1,1.67-1.67h21.2a37,37,0,0,1,37,37v49.47a37,37,0,0,1-37,37H316.67a1.68,1.68,0,0,1-1.68-1.67v-7.07a19.54,19.54,0,0,0-19.52-19.52H182.41a19.54,19.54,0,0,0-19.52,19.52v7.07a1.68,1.68,0,0,1-1.68,1.67H69.35a47.85,47.85,0,0,0-47.79,47.79V326.7a47.85,47.85,0,0,0,47.79,47.79h21.2a1.67,1.67,0,0,1,1.67,1.67v7.07a19.54,19.54,0,0,0,19.53,19.52H224.81a19.54,19.54,0,0,0,19.52-19.52v-7.07a1.68,1.68,0,0,1,1.68-1.67H302.9a1.67,1.67,0,0,1,1.66,1.52,76,76,0,1,0,75.7-83Zm-203-190.69a1.66,1.66,0,0,1-1.22,1.77l-14.6,4-.87,2.82a59.51,59.51,0,0,1-4.16,10l-1.4,2.62,7.53,13.18a1.67,1.67,0,0,1-.27,2l-12.35,12.35a1.64,1.64,0,0,1-1.18.5,1.75,1.75,0,0,1-.83-.22l-13.19-7.53-2.62,1.39a57.61,57.61,0,0,1-10,4.15l-2.82.88-4,14.61a1.67,1.67,0,0,1-1.61,1.23H96.2a1.67,1.67,0,0,1-1.61-1.23l-4-14.61-2.82-.88a57.88,57.88,0,0,1-10-4.15l-2.62-1.39L62,151.37a1.75,1.75,0,0,1-.83.22A1.67,1.67,0,0,1,60,151.1L47.6,138.74a1.7,1.7,0,0,1-.27-2l7.53-13.18-1.39-2.62a57.27,57.27,0,0,1-4.16-10l-.87-2.83-14.61-4a1.67,1.67,0,0,1-1.23-1.62V85a1.67,1.67,0,0,1,1.23-1.61l14.61-4,.88-2.83a57.29,57.29,0,0,1,4.15-10L54.86,64,47.33,50.81a1.68,1.68,0,0,1,.27-2L60,36.44a1.67,1.67,0,0,1,2-.27l13.18,7.52,2.63-1.39a58.25,58.25,0,0,1,10-4.16l2.82-.87,4-14.61a1.67,1.67,0,0,1,1.62-1.23h17.47a1.67,1.67,0,0,1,1.62,1.23l4,14.61,2.83.87a58.79,58.79,0,0,1,10,4.16l2.61,1.39,13.19-7.52a1.66,1.66,0,0,1,.83-.22,1.72,1.72,0,0,1,1.19.49L162.25,48.8a1.68,1.68,0,0,1,.27,2L155,64l1.39,2.62a57.59,57.59,0,0,1,4.16,10l.87,2.83,14.61,4A1.67,1.67,0,0,1,177.25,85Zm197.62,5.3a8.75,8.75,0,0,1-8.74,8.74H253.07a8.75,8.75,0,0,1-8.74-8.74V79.38a8.75,8.75,0,0,1,8.74-8.74H366.13a8.75,8.75,0,0,1,8.74,8.74Zm-201.2,106a8.75,8.75,0,0,1,8.74-8.74H295.47a8.75,8.75,0,0,1,8.74,8.74v28.27a8.75,8.75,0,0,1-8.74,8.74H182.41a8.75,8.75,0,0,1-8.74-8.74Zm59.88,169.59a8.75,8.75,0,0,1-8.74,8.74H111.75a8.75,8.75,0,0,1-8.74-8.74V355a8.76,8.76,0,0,1,8.74-8.75H224.81a8.76,8.76,0,0,1,8.74,8.75Zm146.71,51.14a65.27,65.27,0,1,1,65.27-65.27A65.34,65.34,0,0,1,380.26,434.37Z"/><path class="cls-3" d="M418.9,349.47a5.47,5.47,0,0,0-9.33-3.86l-37,37.05a4.68,4.68,0,0,1-6.6,0l-15-14.76a5.46,5.46,0,1,0-7.75,7.7l22,22a5.3,5.3,0,0,0,3.92,1.57,5.7,5.7,0,0,0,4-1.64l44.21-44.2A5.46,5.46,0,0,0,418.9,349.47Z"/></svg>